<?xml version="1.0" encoding="utf-8"?>
<!-- Generator: Adobe Illustrator 19.2.1, SVG Export Plug-In . SVG Version: 6.00 Build 0)  -->
<svg version="1.1" id="Layer_1" xmlns="http://www.w3.org/2000/svg" xmlns:xlink="http://www.w3.org/1999/xlink" x="0px" y="0px"
	 viewBox="0 0 500 500" style="enable-background:new 0 0 500 500;" xml:space="preserve">
<style type="text/css">
	.st0{fill:url(#SVGID_1_);}
	.st1{fill:#C0D9EB;}
	.st2{fill:#252830;}
</style>
<linearGradient id="SVGID_1_" gradientUnits="userSpaceOnUse" x1="-3.4791" y1="375.0816" x2="464.7346" y2="375.0816" gradientTransform="matrix(0.6986 -0.7156 0.7156 0.6986 -176.3027 155.8414)">
	<stop  offset="0" style="stop-color:#EC864E"/>
	<stop  offset="0.5123" style="stop-color:#AC5FCA"/>
	<stop  offset="1" style="stop-color:#2F85AF"/>
</linearGradient>
<circle class="st0" cx="253.2" cy="252.8" r="234.1"/>
<g>
	<path class="st1" d="M99.9,103.1c-82.7,84.7-81,220.4,3.6,303s220.4,81,303-3.6c82.7-84.7,81-220.4-3.6-303S182.5,18.4,99.9,103.1z
		 M391.1,387.5c-74.4,76.2-196.4,77.6-272.6,3.3c-76.2-74.4-77.6-196.4-3.3-272.6c74.4-76.2,196.4-77.6,272.6-3.3
		C464,189.3,465.5,311.3,391.1,387.5z"/>
</g>
<circle class="st2" cx="253.2" cy="252.8" r="149.7"/>
<g>
	<g>
		<g>
			<path class="st1" d="M196.6,326c3.5-1.6,6.4-6.1,6.4-9.9v-142c0-3.8-0.6-3.9-1.4-0.1l-31.1,157.8c-0.7,3.8,1.5,5.6,5,3.9
				L196.6,326z"/>
		</g>
		<g>
			<path class="st1" d="M225.1,197.4c-1.2-3.7-2.1-3.5-2.1,0.3V309c0,3.9,3.1,7,7,7h3.5c3.8,0,10.1,0,14,0h9.3c3.8,0,10.1,0,14,0
				h4.3c3.9,0,7-3.1,7-7V197.7c0-3.8-1-4-2.2-0.4L254.3,275c-1.2,3.7-3.1,3.6-4.3,0L225.1,197.4z"/>
		</g>
		<g>
			<path class="st1" d="M304.4,173.9c-0.7-3.8-1.4-3.7-1.4,0.1v142c0,3.8,2.9,8.3,6.4,9.9l21.2,9.7c3.5,1.6,5.8-0.2,5-3.9
				L304.4,173.9z"/>
		</g>
	</g>
</g>
</svg>
